<?xml version="1.0" encoding="UTF-8"?>
<svg xmlns="http://www.w3.org/2000/svg" viewBox="85 436 200 200">
  <rect x="85" y="436" width="200" height="200" rx="38" fill="#5a38ff"/>
  <path fill="#ffffff" d="M185.09,473.16c-31.78,0-57.56,26.55-57.56,59.34,0,12.52,3.75,24.11,10.16,33.68,2.41,3.6,1.53,8.53-1.97,11.01-3.5,2.48-8.29,1.57-10.7-2.03-8.12-12.12-12.87-26.83-12.87-42.66,0-41.5,32.65-75.18,72.96-75.18s72.96,33.67,72.96,75.18c0,3.29-.21,6.53-.6,9.72-.54,4.34-4.4,7.4-8.62,6.84-4.22-.56-7.19-4.53-6.65-8.86.32-2.52.48-5.08.48-7.69,0-32.79-25.79-59.34-57.56-59.34Z"/>
  <path fill="#ffffff" d="M164.35,536.46c7.63,0,13.82-6.38,13.82-14.24s-6.19-14.24-13.82-14.24-13.82,6.38-13.82,14.24,6.19,14.24,13.82,14.24Z"/>
  <path fill="#ffc400" d="M200.66,561.12c3.32,2.74,3.85,7.72,1.19,11.13l-31.48,40.36c-1.37,1.76-3.4,2.83-5.59,2.95-2.19.12-4.32-.72-5.86-2.31l-14.59-15.03c-3-3.09-3-8.11.01-11.19,3.01-3.09,7.88-3.08,10.88.01l8.52,8.78,26.1-33.46c2.66-3.41,7.5-3.96,10.82-1.22Z"/>
  <path fill="#ffc400" d="M242.78,561.84c3.35,2.69,3.96,7.66,1.35,11.11l-29.94,39.57c-1.36,1.79-3.4,2.9-5.6,3.04-2.2.14-4.36-.7-5.92-2.31l-7.68-7.91c-3-3.09-3-8.11.01-11.2,3.01-3.09,7.88-3.08,10.88.01l1.52,1.56,24.58-32.49c2.61-3.45,7.45-4.07,10.8-1.38Z"/>
</svg>
