<?xml version="1.0" encoding="UTF-8"?>
<svg id="Layer_1" data-name="Layer 1" xmlns="http://www.w3.org/2000/svg" viewBox="0 0 1080 1080">
  <defs>
    <style>
      .cls-1 {
        fill: #fff;
      }

      .cls-2, .cls-3 {
        fill: #5a38ff;
      }

      .cls-3, .cls-4 {
        fill-rule: evenodd;
      }

      .cls-5 {
        font-family: AreaVariableThin-InktrapExtraBoldItalic, 'Area Variable';
        font-size: 45.95px;
        font-style: italic;
        font-variation-settings: 'INKT' 100, 'wght' 800, 'wdth' 100, 'slnt' -10;
        font-weight: 700;
      }

      .cls-5, .cls-6, .cls-4 {
        fill: #ffc400;
      }

      .cls-7 {
        fill: #05021a;
      }
    </style>
  </defs>
  <rect class="cls-7" x="-5" y="-5" width="1090" height="1090"/>
  <g>
    <g>
      <path class="cls-4" d="M200.66,561.12c3.32,2.74,3.85,7.72,1.19,11.13l-31.48,40.36c-1.37,1.76-3.4,2.83-5.59,2.95-2.19.12-4.32-.72-5.86-2.31l-14.59-15.03c-3-3.09-3-8.11.01-11.19,3.01-3.09,7.88-3.08,10.88.01l8.52,8.78,26.1-33.46c2.66-3.41,7.5-3.96,10.82-1.22Z"/>
      <path class="cls-4" d="M242.78,561.84c3.35,2.69,3.96,7.66,1.35,11.11l-29.94,39.57c-1.36,1.79-3.4,2.9-5.6,3.04-2.2.14-4.36-.7-5.92-2.31l-7.68-7.91c-3-3.09-3-8.11.01-11.2,3.01-3.09,7.88-3.08,10.88.01l1.52,1.56,24.58-32.49c2.61-3.45,7.45-4.07,10.8-1.38Z"/>
      <path class="cls-3" d="M185.09,473.16c-31.78,0-57.56,26.55-57.56,59.34,0,12.52,3.75,24.11,10.16,33.68,2.41,3.6,1.53,8.53-1.97,11.01-3.5,2.48-8.29,1.57-10.7-2.03-8.12-12.12-12.87-26.83-12.87-42.66,0-41.5,32.65-75.18,72.96-75.18s72.96,33.67,72.96,75.18c0,3.29-.21,6.53-.6,9.72-.54,4.34-4.4,7.4-8.62,6.84-4.22-.56-7.19-4.53-6.65-8.86.32-2.52.48-5.08.48-7.69,0-32.79-25.79-59.34-57.56-59.34Z"/>
      <path class="cls-2" d="M164.35,536.46c7.63,0,13.82-6.38,13.82-14.24s-6.19-14.24-13.82-14.24-13.82,6.38-13.82,14.24,6.19,14.24,13.82,14.24Z"/>
    </g>
    <g>
      <g>
        <path class="cls-1" d="M300.13,460.81h17.44c5.15,11.69,8.98,20.38,11.5,26.06,2.51,5.69,6.25,14.22,11.22,25.59h.19c5.15-11.69,8.99-20.37,11.5-26.06,2.51-5.69,6.25-14.22,11.22-25.59h17.44v73.52h-14.23v-47.32h-.38c-2.58,6.03-4.92,11.5-7.02,16.4-2.11,4.9-4.51,10.31-7.21,16.21-1.13,2.7-2.17,5.15-3.11,7.35-.94,2.2-2.01,4.65-3.2,7.35h-10.18c-1.51-3.45-2.61-6-3.3-7.64-.69-1.63-1.79-4.11-3.3-7.45-3.14-7.29-5.48-12.71-7.02-16.26-1.54-3.55-3.85-8.88-6.93-15.98h-.38v47.32h-14.23v-73.52Z"/>
        <path class="cls-1" d="M403.2,532.4c-4.12-2.36-7.32-5.64-9.61-9.85-2.29-4.21-3.44-9.02-3.44-14.42s1.15-10.21,3.44-14.42c2.29-4.21,5.5-7.51,9.61-9.9,4.11-2.39,8.81-3.58,14.09-3.58s9.98,1.19,14.09,3.58c4.11,2.39,7.32,5.69,9.61,9.9,2.29,4.21,3.44,9.02,3.44,14.42s-1.15,10.21-3.44,14.42c-2.29,4.21-5.5,7.49-9.61,9.85-4.12,2.36-8.78,3.53-14,3.53s-10.07-1.18-14.19-3.53ZM424.26,521.37c2.01-1.29,3.58-3.08,4.71-5.37,1.13-2.29,1.7-4.92,1.7-7.87s-.56-5.59-1.7-7.92c-1.13-2.32-2.7-4.13-4.71-5.42-2.01-1.29-4.34-1.93-6.98-1.93s-4.9.65-6.97,1.93c-2.07,1.29-3.68,3.1-4.81,5.42-1.13,2.33-1.7,4.97-1.7,7.92s.56,5.58,1.7,7.87c1.13,2.29,2.73,4.09,4.81,5.37,2.07,1.29,4.4,1.93,6.97,1.93s4.96-.64,6.98-1.93Z"/>
        <path class="cls-1" d="M472.34,533.58c-2.77-1.57-4.93-3.64-6.5-6.22h-.19v6.98h-13.01v-75.41h13.2v36.48l-2.36-1.88c2.07-4.46,4.76-7.79,8.06-9.99,3.3-2.2,7.05-3.3,11.26-3.3,4.65,0,8.7,1.22,12.16,3.68,3.45,2.45,6.11,5.78,7.96,9.99,1.85,4.21,2.78,8.89,2.78,14.04,0,5.66-1.1,10.6-3.3,14.84-2.2,4.24-5.12,7.49-8.77,9.76-3.65,2.26-7.57,3.39-11.78,3.39-3.58,0-6.76-.79-9.52-2.36ZM485.67,521.37c1.98-1.29,3.53-3.08,4.67-5.37,1.13-2.29,1.7-4.92,1.7-7.87s-.56-5.5-1.7-7.82c-1.13-2.32-2.69-4.15-4.67-5.47-1.98-1.32-4.26-1.98-6.83-1.98s-4.87.66-6.88,1.98c-2.01,1.32-3.58,3.14-4.71,5.47-1.13,2.33-1.7,4.93-1.7,7.82s.56,5.58,1.7,7.87c1.13,2.29,2.72,4.09,4.76,5.37,2.04,1.29,4.32,1.93,6.83,1.93s4.85-.64,6.83-1.93Z"/>
        <path class="cls-1" d="M514.85,471.37c-1.57-1.63-2.36-3.61-2.36-5.94,0-1.44.36-2.78,1.08-4.01.72-1.23,1.71-2.2,2.97-2.92,1.26-.72,2.64-1.08,4.15-1.08,2.32,0,4.26.8,5.8,2.4,1.54,1.6,2.31,3.47,2.31,5.61,0,1.57-.36,2.99-1.08,4.24-.72,1.26-1.7,2.26-2.92,3.02-1.23.76-2.59,1.13-4.1,1.13-2.33,0-4.27-.82-5.84-2.45ZM514,481.74h13.2v52.6h-13.2v-52.6Z"/>
        <path class="cls-1" d="M553.87,531.03c-5.66-3.27-10.15-7.81-13.48-13.62-3.33-5.81-5-12.39-5-19.75s1.67-13.95,5-19.79c3.33-5.84,7.82-10.4,13.48-13.67,5.66-3.27,11.91-4.9,18.76-4.9s13.1,1.65,18.76,4.95c5.66,3.3,10.13,7.87,13.43,13.71,3.3,5.84,4.95,12.41,4.95,19.7s-1.65,13.84-4.95,19.65c-3.3,5.81-7.78,10.37-13.43,13.67-5.66,3.3-11.91,4.95-18.76,4.95s-13.1-1.63-18.76-4.9ZM584.03,519.49c3.39-2.17,6.08-5.15,8.06-8.95,1.98-3.8,2.97-8.09,2.97-12.87s-.97-8.89-2.92-12.72c-1.95-3.83-4.62-6.87-8.01-9.1-3.39-2.23-7.2-3.35-11.41-3.35s-8.03,1.08-11.45,3.25c-3.43,2.17-6.14,5.17-8.15,9-2.01,3.83-3.02,8.14-3.02,12.91s1,9.16,3.02,12.96c2.01,3.8,4.74,6.77,8.2,8.91,3.46,2.14,7.26,3.2,11.41,3.2s7.92-1.08,11.31-3.25Z"/>
        <path class="cls-1" d="M622.3,529.24v-35.53h-7.82v-11.97h7.82v-5.75c.06-4.4.89-7.97,2.5-10.7,1.6-2.73,3.74-4.74,6.41-6.03,2.67-1.29,5.7-1.93,9.1-1.93s6.22.5,8.67,1.51v11.03c-1.2-.44-2.25-.75-3.16-.94-.91-.19-1.81-.28-2.68-.28-2.2,0-3.88.44-5.04,1.32-1.16.88-1.88,1.95-2.17,3.2-.28,1.26-.42,2.77-.42,4.52v4.05h12.16v11.97h-12.16v40.62h-13.2v-5.09Z"/>
        <path class="cls-1" d="M657.65,529.24v-35.53h-7.82v-11.97h7.82v-5.75c.06-4.4.89-7.97,2.5-10.7,1.6-2.73,3.74-4.74,6.41-6.03,2.67-1.29,5.7-1.93,9.1-1.93s6.22.5,8.67,1.51v11.03c-1.2-.44-2.25-.75-3.16-.94-.91-.19-1.81-.28-2.68-.28-2.2,0-3.88.44-5.04,1.32-1.16.88-1.88,1.95-2.17,3.2-.28,1.26-.42,2.77-.42,4.52v4.05h12.16v11.97h-12.16v40.62h-13.2v-5.09ZM691.49,471.37c-1.57-1.63-2.36-3.61-2.36-5.94,0-1.44.36-2.78,1.08-4.01.72-1.23,1.71-2.2,2.97-2.92,1.26-.72,2.64-1.08,4.15-1.08,2.33,0,4.26.8,5.8,2.4,1.54,1.6,2.31,3.47,2.31,5.61,0,1.57-.36,2.99-1.09,4.24-.72,1.26-1.7,2.26-2.92,3.02-1.23.76-2.59,1.13-4.1,1.13-2.33,0-4.27-.82-5.84-2.45ZM690.64,481.74h13.19v52.6h-13.19v-52.6Z"/>
        <path class="cls-1" d="M725.47,532.54c-4.18-2.26-7.45-5.5-9.8-9.71-2.36-4.21-3.53-9.11-3.53-14.7s1.16-10.49,3.49-14.7c2.32-4.21,5.53-7.46,9.61-9.76,4.08-2.29,8.67-3.44,13.76-3.44,5.78,0,10.87,1.45,15.27,4.34,4.4,2.89,7.51,6.91,9.33,12.06l-12.35,5c-1.01-2.95-2.61-5.15-4.81-6.6-2.2-1.44-4.68-2.17-7.45-2.17-2.58,0-4.87.66-6.88,1.98-2.01,1.32-3.57,3.14-4.67,5.47-1.1,2.33-1.65,4.9-1.65,7.73,0,3.08.6,5.78,1.79,8.11,1.19,2.33,2.84,4.1,4.95,5.33,2.11,1.22,4.45,1.84,7.02,1.84,2.89,0,5.48-.8,7.78-2.4,2.29-1.6,4.04-3.94,5.23-7.02l12.35,5c-1.89,5.28-5.09,9.44-9.61,12.49-4.53,3.05-9.8,4.57-15.84,4.57-5.15,0-9.82-1.13-14-3.39Z"/>
        <path class="cls-1" d="M781.5,532.49c-4.15-2.29-7.41-5.53-9.8-9.71-2.39-4.18-3.58-9-3.58-14.47s1.13-10.15,3.39-14.42c2.26-4.27,5.39-7.62,9.38-10.04,3.99-2.42,8.53-3.63,13.62-3.63,4.59,0,8.8,1.02,12.63,3.06,3.83,2.04,6.91,5.18,9.24,9.43,2.32,4.24,3.49,9.44,3.49,15.6v3.58h-38.37c.31,2.58,1.13,4.78,2.45,6.6,1.32,1.82,2.97,3.19,4.95,4.1,1.98.91,4.13,1.37,6.46,1.37,2.76,0,5.21-.71,7.35-2.12,2.14-1.41,3.8-3.47,5-6.17l12.35,5c-1.82,4.52-4.9,8.2-9.24,11.03-4.34,2.83-9.43,4.24-15.27,4.24-5.22,0-9.9-1.15-14.04-3.44ZM804.36,496.35c-1.16-1.57-2.59-2.73-4.29-3.49-1.7-.75-3.58-1.13-5.66-1.13-2.2,0-4.13.44-5.8,1.32-1.67.88-3.06,2.14-4.19,3.77-1.13,1.63-1.92,3.52-2.36,5.66h24.41c-.25-2.51-.96-4.56-2.12-6.13Z"/>
        <path class="cls-1" d="M831.65,460.81h7.54v32.99h41.75v-32.99h7.54v73.52h-7.54v-33.37h-41.75v33.37h-7.54v-73.52Z"/>
        <path class="cls-1" d="M961.53,542.16c-2.14-2.51-3.74-4.4-4.81-5.66-1.07-1.26-2.64-3.14-4.71-5.66-2.7,1.63-5.63,2.89-8.77,3.77-3.14.88-6.38,1.32-9.71,1.32-6.79,0-13.02-1.65-18.71-4.95-5.69-3.3-10.18-7.87-13.48-13.71-3.3-5.84-4.95-12.38-4.95-19.61s1.65-13.78,4.95-19.65c3.3-5.87,7.79-10.46,13.48-13.76,5.69-3.3,11.92-4.95,18.71-4.95s13.19,1.7,18.85,5.09c5.66,3.39,10.12,8.01,13.38,13.86,3.27,5.84,4.9,12.32,4.9,19.42,0,5.84-1.13,11.3-3.39,16.35-2.26,5.06-5.4,9.35-9.43,12.87,1.95,2.26,3.38,3.94,4.29,5.04.91,1.1,2.31,2.75,4.19,4.95l1.6,1.79-5.47,4.52c-.32-.44-.63-.79-.94-1.04ZM940.51,527.78c2.26-.66,4.4-1.65,6.41-2.97-2.52-2.95-4.38-5.15-5.61-6.6-1.23-1.45-3.06-3.61-5.51-6.5-.44-.56-.79-.97-1.04-1.22-.25-.25-.57-.63-.94-1.13l5.37-4.52c1.38,1.57,2.51,2.92,3.39,4.05,2.89,3.39,6.35,7.48,10.37,12.25,3.08-2.89,5.47-6.35,7.16-10.37,1.7-4.02,2.55-8.39,2.55-13.1,0-5.84-1.29-11.15-3.87-15.93-2.58-4.77-6.08-8.51-10.51-11.22-4.43-2.7-9.32-4.05-14.66-4.05s-10.24,1.35-14.7,4.05c-4.46,2.7-8.01,6.43-10.65,11.17-2.64,4.75-3.96,10.07-3.96,15.98s1.32,11.23,3.96,15.98c2.64,4.75,6.19,8.45,10.65,11.12,4.46,2.67,9.36,4.01,14.7,4.01,2.32,0,4.62-.33,6.88-.99Z"/>
      </g>
      <rect class="cls-1" x="634.45" y="481.71" width="24.27" height="11.97"/>
    </g>
    <g>
      <rect class="cls-6" x="299.1" y="588.54" width="224.72" height="4.21"/>
      <rect class="cls-6" x="746.98" y="588.54" width="224.72" height="4.21"/>
    </g>
    <text class="cls-5" transform="translate(546.31 610.71)"><tspan x="0" y="0">TaskRio</tspan></text>
  </g>
</svg>
